<svg xmlns="http://www.w3.org/2000/svg" viewBox="0 0 64 64" role="img" aria-label="Smart Attendance System favicon">
  <defs>
    <linearGradient id="bg" x1="10" y1="8" x2="54" y2="56" gradientUnits="userSpaceOnUse">
      <stop offset="0" stop-color="#3b82f6"/>
      <stop offset="1" stop-color="#1d4ed8"/>
    </linearGradient>
    <linearGradient id="ring" x1="18" y1="18" x2="46" y2="46" gradientUnits="userSpaceOnUse">
      <stop offset="0" stop-color="#e0f2fe"/>
      <stop offset="1" stop-color="#ffffff"/>
    </linearGradient>
  </defs>
  <rect width="64" height="64" rx="18" fill="url(#bg)"/>
  <path d="M32 14c-7.5 0-13.6 6.1-13.6 13.6v5.6a2.2 2.2 0 1 0 4.4 0v-5.6a9.2 9.2 0 1 1 18.4 0v5.6a2.2 2.2 0 1 0 4.4 0v-5.6C45.6 20.1 39.5 14 32 14Z" fill="url(#ring)"/>
  <path d="M25.8 33.3a2.2 2.2 0 0 0-2.2 2.2c0 3.1 1.8 5.9 4.7 7.2v2a2.2 2.2 0 0 0 4.4 0v-2c2.9-1.3 4.7-4.1 4.7-7.2a2.2 2.2 0 1 0-4.4 0 3.5 3.5 0 1 1-7 0 2.2 2.2 0 0 0-2.2-2.2Z" fill="url(#ring)"/>
  <circle cx="32" cy="35.5" r="2.6" fill="#1d4ed8"/>
</svg>
